<?xml version="1.0" encoding="utf-8"?>
<!-- Generator: Adobe Illustrator 26.3.1, SVG Export Plug-In . SVG Version: 6.00 Build 0)  -->
<svg version="1.1" id="레이어_1" xmlns="http://www.w3.org/2000/svg" xmlns:xlink="http://www.w3.org/1999/xlink" x="0px"
	 y="0px" viewBox="0 0 421.64 99.77" style="enable-background:new 0 0 421.64 99.77;" xml:space="preserve" width="155px" height="37px">
<style type="text/css">
	.st0{fill:#040000;}
</style>
<polygon class="st0" points="366.87,77.09 353.51,77.09 366.87,1.3 380.23,1.3 "/>
<path class="st0" d="M279.28,59.97l-0.59,3.34c-0.27,1.53-1.6,2.65-3.16,2.65h-17.99c-1.5,0-2.63-1.35-2.37-2.82l1.52-8.64
	l36.81,0.03l4.16-23.27c1.05-5.9-3.48-11.31-9.47-11.31h-28c-6.22,0-11.55,4.47-12.63,10.6l-6.22,35.26
	c-1.04,5.89,3.49,11.29,9.47,11.29h28.04c6.22,0,11.55-4.47,12.63-10.6l1.15-6.53H279.28z M263.52,31.08h17.99
	c1.5,0,2.63,1.35,2.37,2.82l-1.93,10.95H258.4l1.96-11.13C260.63,32.19,261.96,31.08,263.52,31.08"/>
<path class="st0" d="M336.39,59.97l-0.59,3.34c-0.27,1.53-1.6,2.65-3.16,2.65h-17.99c-1.5,0-2.63-1.35-2.37-2.82l1.52-8.64
	l36.81,0.03l4.16-23.27c1.05-5.9-3.48-11.31-9.47-11.31h-28c-6.22,0-11.55,4.47-12.63,10.6l-6.22,35.26
	c-1.04,5.89,3.49,11.29,9.47,11.29h28.04c6.22,0,11.55-4.47,12.63-10.6l1.15-6.53H336.39z M320.63,31.08h17.99
	c1.5,0,2.63,1.35,2.37,2.82l-1.93,10.95h-23.55l1.96-11.13C317.74,32.19,319.07,31.08,320.63,31.08"/>
<polygon class="st0" points="393.32,77.09 370.26,48.18 403.18,19.94 418.36,19.94 385.45,48.18 408.5,77.09 "/>
<path class="st0" d="M123.97,30.53l-6.23,35.26c-1.04,5.89,3.49,11.29,9.47,11.29h28.04c6.22,0,11.55-4.47,12.63-10.6l6.22-35.26
	c1.04-5.89-3.49-11.29-9.47-11.29H136.6C130.38,19.94,125.06,24.41,123.97,30.53 M151.96,65.96h-18.03c-1.5,0-2.63-1.35-2.37-2.82
	l5.19-29.41c0.27-1.53,1.6-2.65,3.16-2.65h18.03c1.5,0,2.63,1.35,2.37,2.82l-5.19,29.41C154.85,64.84,153.52,65.96,151.96,65.96"/>
<path class="st0" d="M12.9,77.09h28.03c6.22,0,11.55-4.47,12.63-10.59l0.7-3.95l0.48-2.7c0.82-4.61-1.81-9.15-6.22-10.73
	l-25.24-9.06c-1.1-0.4-1.76-1.53-1.56-2.68l0.64-3.65c0.27-1.53,1.6-2.65,3.16-2.65h18.03c1.5,0,2.63,1.35,2.37,2.82l-0.96,5.45
	h13.33l1.43-8.12c1.04-5.89-3.49-11.29-9.47-11.29H22.22c-6.22,0-11.55,4.47-12.63,10.59l-0.7,3.95l-0.48,2.7
	c-0.82,4.61,1.81,9.14,6.22,10.73l25.24,9.06c1.1,0.4,1.76,1.53,1.56,2.68l-0.64,3.65c-0.27,1.53-1.6,2.65-3.16,2.65H19.6
	c-1.5,0-2.63-1.35-2.37-2.82l0.96-5.45H4.86L3.43,65.8C2.39,71.69,6.92,77.09,12.9,77.09"/>
<path class="st0" d="M97.94,63.31c-0.27,1.53-1.6,2.65-3.16,2.65h-4.41l-9.4,11.13h17.11c6.22,0,11.55-4.47,12.63-10.6l6.22-35.26
	c1.04-5.89-3.49-11.29-9.47-11.29H68.66L54.79,98.47h2.22l27.46-32.52H73.88l6.18-34.88h20.69c1.5,0,2.63,1.35,2.37,2.82
	L97.94,63.31z"/>
<polygon class="st0" points="180.16,19.94 182.23,77.09 195.58,77.09 193.51,19.94 "/>
<polygon class="st0" points="202.58,19.94 204.65,77.09 217.2,77.09 215.93,19.94 "/>
<polygon class="st0" points="245.57,19.94 221.31,77.09 207.95,77.09 232.21,19.94 "/>
<path class="st0" d="M94.78,65.96h-4.41l-9.4,11.13h17.11c6.22,0,11.55-4.47,12.63-10.6l-12.77-3.19
	C97.67,64.84,96.34,65.96,94.78,65.96"/>
</svg>

